<?xml version="1.0" encoding="UTF-8"?>
<svg id="Layer_2" data-name="Layer 2" xmlns="http://www.w3.org/2000/svg" viewBox="0 0 154.09 260.23">
  <g id="Livello_1" data-name="Livello 1">
    <path d="M41.39,164.82c1.09-3.44,2.03-6.93,2.91-10.43,.87-3.51,1.59-7.07,2.28-10.63-.23,3.63-.73,7.23-1.42,10.81-.67,3.58-1.6,7.11-2.67,10.58-.44,1.38-15.89,38.9-32.83,79.91,.27,.07,.54,.14,.8,.22,18.74-45.57,37.49-91.21,37.8-92.38-.16,1.19-18.8,46.88-37.43,92.48,3.66,1.05,7.31,2.3,10.91,3.8,7.14,2.98,13.73,6.71,19.76,11.04,21.73-49.72,43.82-99.54,47.55-104.35,3.3-4.24,9.03-5.73,13.96-3.6l21.63-49.86-4.45-1.92L154.09,27.99,89.58,0l-29.78,74.29-4.45-1.92-20.98,48.38c3.43,1.43,6.86,2.89,10.28,4.36,6.14,2.69,12.29,5.4,18.38,8.25,6.11,2.8,12.15,5.75,18.13,8.83-6.33-2.26-12.62-4.66-18.83-7.19-6.23-2.51-12.42-5.15-18.58-7.8-2.38-1.03-4.74-2.08-7.1-3.13,3.06,2.61,4.65,6.68,3.98,10.81-1.17,7.3-20.54,57.38-40.62,108.06,2.88,.49,5.76,1.1,8.62,1.85,16.9-41,32.29-78.42,32.77-79.97ZM134.37,56.21l-19.77,41.85-4.51-1.96-4.5-1.95h0s0,0,0,0l23.28-39.59-18.78,41.53,24.28-39.9Zm-33.3,35.99l22.28-39.28-17.78,41.23-4.5-1.95h0s0,0,0,0ZM136.49,26.78c-4.11-.23-7.92-1.08-11.66-2.12-3.73-1.08-7.36-2.4-10.88-3.93-3.53-1.53-6.97-3.28-10.31-5.28-3.31-2.01-6.54-4.23-9.51-7.06l42.37,18.39Zm-35.44,65.41l-4.46-1.93,21.27-38.97-16.8,40.9Zm-4.53-1.95l-4.44-1.93,20.27-38.66-15.82,40.59h0s0,0,0,0Zm-4.53-1.97l-4.44-1.93,19.28-38.34-14.83,40.27h0s0,0,0,0Zm-4.53-1.97l-4.43-1.93,18.29-38.03-13.86,39.95Zm-4.53-1.96l-4.41-1.91,17.28-37.73-12.87,39.63Zm-4.53-1.97l-4.42-1.92,16.31-37.39-11.89,39.31Zm-8.96-3.88l15.34-37.07-10.91,38.99-3.75-1.61-.68-.3h0s0,0,0,0Zm9.83-38.72l-9.94,38.67h0s0,0,0,0l-4.43-1.92,14.37-36.75Zm-12.73,72.88c-2.12-.91-3.09-3.37-2.16-5.49,.92-2.13,3.37-3.09,5.5-2.17,2.11,.92,3.08,3.38,2.17,5.5-.93,2.12-3.38,3.08-5.51,2.16Zm12.66-24c-2.15-1.01-4.27-2.04-6.38-3.09-2.13-1.05-4.25-2.08-6.35-3.17,2.23,.79,4.44,1.63,6.65,2.47,2.22,.83,4.42,1.67,6.62,2.54,4.39,1.73,8.77,3.5,13.12,5.33,4.37,1.78,8.69,3.67,13.03,5.53,4.32,1.91,8.66,3.78,12.94,5.75l.95,.42-.42,.92c-1.9,4.22-3.84,8.41-5.84,12.59-.98,2.09-2,4.17-3.04,6.24-1.02,2.08-2.03,4.17-3.11,6.22,.77-2.19,1.6-4.36,2.41-6.53,.8-2.16,1.63-4.33,2.49-6.47,1.57-3.99,3.17-7.94,4.82-11.9-4.05-1.69-8.07-3.43-12.11-5.15-4.32-1.91-8.66-3.77-12.94-5.75-4.3-1.93-8.58-3.91-12.85-5.94Zm8.37,33.12c-2.12-.91-3.09-3.37-2.17-5.5,.92-2.11,3.38-3.08,5.49-2.16,2.13,.92,3.1,3.38,2.17,5.5-.91,2.12-3.37,3.09-5.49,2.16Z"/>
  </g>
</svg>