<?xml version="1.0" encoding="UTF-8"?>
<svg id="Layer_2" data-name="Layer 2" xmlns="http://www.w3.org/2000/svg" viewBox="0 0 255.67 228.32">
  <g id="Livello_1" data-name="Livello 1">
    <path d="M161.31,142.95l3.28-2.37,57.09,79.16c7.98-6.32,16.88-11.44,26.43-15.1l-12.43-17.73c-6.82-9.94-13.73-19.81-20.46-29.81,7.36,9.55,14.56,19.21,21.84,28.82l13.29,17.93c1.37-.49,2.74-.95,4.13-1.38l-60.04-83.25c1.56-4.21,1.08-9.09-1.74-13l-3.42-4.74c-2.64-3.66-6.7-5.64-10.86-5.76-.81,.17-1.57,.43-2.32,.74-1.13,.44-2.18,1.08-3.18,1.76l-3.28,2.43c-4.4,3.13-8.84,6.25-13.39,9.2-4.55,2.95-9.15,5.81-13.98,8.41,3.99-3.77,8.15-7.24,12.4-10.6,4.23-3.4,8.58-6.64,12.95-9.81l3.33-2.36c1.25-.82,2.54-1.61,3.97-2.07,.22-.07,.46-.17,.7-.21-6.25-8.44-12.73-16.85-18.06-25.75-1.87-3.1-3.6-6.32-4.56-9.83-1.21-4.46-1.01-9.55,1.62-13.36,3.38-4.9,10.15-7.96,15.3-10.54,18.32-9.22,38.43-11.41,58.66-10.44,6.38,.32,15.82,1.22,27.1,3.98-9.57-6.55-22.56-13.9-38.88-19.34-13.7-4.56-28-7.16-42.45-7.64-15.46-.54-31.44-.85-46.18,4.57-7.3,2.68-14.12,6.48-20.28,11.24-2.03,1.57-4.08,3.13-6.15,4.62l-26.42,19.05c2.49,8.1-2.59,19.16-12.9,26.6-2.98,2.15-6.26,3.89-9.72,5.09-3.07,1.05-6.3,1.68-9.53,1.68-2.79-.02-5.65-.5-8.15-1.78-.75-.37-1.4-.91-2.09-1.37L0,93.72l41.08,56.96,32.41-23.37c-5.05-8.15-.04-21.18,11.57-29.55,11.96-8.63,26.42-9.06,32.25-.98,.11,.15,.19,.32,.31,.48l19.76,27.4c-1.57,4.19-1.08,9.09,1.74,13l3.42,4.74c2.82,3.91,7.3,5.91,11.79,5.76l57.81,80.16c2.05-2.1,4.2-4.09,6.41-6l-57.24-79.37Zm-119.41,.19l-3.3-4.57,8.79-6.34,3.3,4.57-8.79,6.34Zm8.15-64.64c-2.88,.48-5.82,.56-8.7,.25-2.88-.32-5.71-1.12-8.21-2.52,5.36,2.03,11.19,1.88,16.53,.49,5.38-1.35,10.42-3.89,14.81-7.21,4.4-3.31,8.19-7.41,10.94-12.09,2.75-4.65,4.34-10.02,3.93-15.23l-.07-.98,.78-.56c7.67-5.49,15.19-11.33,23.08-16.69,3.95-2.7,7.98-5.26,12.15-7.6,4.2-2.3,8.46-4.48,12.91-6.17-4.15,2.33-8.2,4.78-12.08,7.49-3.92,2.66-7.71,5.5-11.48,8.36-7.25,5.56-14.38,11.36-21.84,16.8,.32,5.83-1.65,11.49-4.51,16.29-3.09,5.1-7.36,9.34-12.16,12.68-4.84,3.3-10.32,5.69-16.08,6.68Zm50.36,8.87c-3.01,.56-5.97,1.43-8.75,2.67-2.82,1.2-5.53,2.69-8.01,4.5-5.04,3.49-9.46,7.94-12.63,13.18-3.13,5.24-4.98,11.43-3.95,17.81-1.24-2.98-1.57-6.34-1.25-9.63,.35-3.27,1.35-6.5,2.83-9.47,2.93-5.98,7.65-10.94,13.02-14.73,5.42-3.79,11.76-6.39,18.39-7.01,3.31-.32,6.69-.08,9.88,.82,3.16,.91,6.16,2.51,8.4,4.82-5.47-3.46-11.94-4.01-17.92-2.96Zm45.76-28.16c-.8-2.77-1.32-5.82-1.09-8.83,.22-3.02,1.18-6.08,2.96-8.55,1.77-2.51,4.15-4.34,6.58-5.82,2.47-1.45,4.97-2.63,7.49-3.93-4.16,3.79-9.26,6.7-11.8,11.2-2.58,4.45-2.38,9.93-.8,14.96,1.48,5.14,4.03,9.98,6.84,14.74,2.82,4.74,5.98,9.38,8.66,14.34-3.84-4.1-7.59-8.26-10.92-12.85-3.34-4.57-6.23-9.64-7.92-15.25Z"/>
  </g>
</svg>