<?xml version="1.0" encoding="UTF-8"?>
<svg id="Layer_2" data-name="Layer 2" xmlns="http://www.w3.org/2000/svg" viewBox="0 0 265.9 146.82">
  <defs>
    <style>
      .cls-1 {
        fill: none;
      }
    </style>
  </defs>
  <g id="Livello_1" data-name="Livello 1">
    <g>
      <path class="cls-1" d="M101.4,45.87l-1.7,.17,.17,1.63c.57,4.87,1.24,9.73,1.93,14.56,.76,4.84,1.45,9.69,2.34,14.51,.82,4.84,1.75,9.65,2.76,14.46,.98,4.8,2.08,9.6,3.37,14.38-.15-4.92-.48-9.81-.94-14.68-.42-4.89-.94-9.75-1.55-14.6-.57-4.87-1.31-9.71-2-14.56-.68-4.32-1.36-8.64-2.12-12.95,4.28-.66,8.56-1.34,12.83-2.11,4.87-.83,9.7-1.76,14.53-2.84-4.96,.12-9.92,.39-14.84,.76-4.94,.33-9.86,.78-14.77,1.27Z"/>
      <path class="cls-1" d="M91.15,83.52l-1.78-15.38-.06-.52-.48-.35-20.93-16.01-.52-.4-.69,.02-29.15,1.15-26.04,1.12c1.87-4.11,4.08-8.08,6.7-11.84,3.14-4.59,6.57-9.02,10.44-13.09,7.72-8.11,17.33-14.86,28.43-18.43,11.11-3.53,23.32-3.96,34.98-1.71,11.72,2.1,22.86,6.56,33.47,11.76-10.17-5.88-21.21-10.72-33.05-13.45-11.81-2.72-24.58-2.75-36.4,.77-11.84,3.44-22.09,10.47-30.24,18.81-4.15,4.18-7.69,8.74-10.96,13.45-3.31,4.74-6.03,9.8-8.27,15.03l-1.1,2.61,3.07-.14,29.15-1.35,28.47-1.43,20.32,14.87,2.18,14.78,2.37,15.31c1.64,10.22,3.19,20.42,4.94,30.62-.94-10.29-2.09-20.54-3.16-30.81l-1.69-15.38Z"/>
      <path class="cls-1" d="M175.85,99.58c-3.76,1.12-7.37,2.74-10.63,4.76-3.27,1.99-6.13,4.43-9,6.83,3.14-2.11,6.22-4.27,9.57-6.02,3.32-1.74,6.9-3.03,10.61-3.86,7.34-1.75,15.23-1.63,22.43-.2,5.39,1.34,35.35,7.86,65.23,14.36v-3.42c-29.61-6.31-59.2-12.6-64.47-13.7-8.01-1.33-16.13-.99-23.75,1.25Z"/>
      <path class="cls-1" d="M39.4,107c-4.09,.53-8.19,1.06-12.27,1.68l-4,.6,2.97,2.49c4.96,4.12,10.97,7.22,17.34,8.97,3.18,.89,6.46,1.42,9.71,1.76,3.24,.34,6.5,.43,9.75,.47-3.16-.7-6.34-1.31-9.45-2.05-3.09-.74-6.14-1.59-9.04-2.68-2.93-1.06-5.7-2.39-8.33-3.89-1.41-.85-2.77-1.74-4.08-2.69,2.67-.37,5.33-.76,7.99-1.14,4.07-.56,8.14-1.28,12.21-1.92,8.14-1.42,16.25-2.94,24.29-4.91-8.31,.27-16.55,1.04-24.78,1.86-4.12,.48-8.23,.89-12.32,1.45Z"/>
      <path d="M198.83,101.1c-7.21-1.42-15.1-1.55-22.43,.2-3.71,.82-7.28,2.12-10.61,3.86-3.34,1.75-6.43,3.91-9.57,6.02,2.87-2.4,5.73-4.84,9-6.83,3.26-2.02,6.86-3.64,10.63-4.76,7.62-2.24,15.73-2.58,23.75-1.25,5.27,1.11,34.86,7.39,64.47,13.7v-9.29c-22.57-4.84-42.49-9.11-44.83-9.65-11.78-1.17-18.08-9.77-16.58-15.11,1.29-4.54,8.75-8.5,17.73-7.51,5.85,1.04,23.62,4.3,43.73,7.99,.11-5.94,.72-11.76,1.78-17.45-35.34-6.57-73.07-13.59-88.21-16.41-9.21-1.71-17.57-5.99-24.21-12.08-6.18-5.68-14.42-11.98-24.97-17.48C116.82,8.98,86.23-6.96,53.98,3.44,30.64,10.96,17.76,28.64,12.83,35.38,5.73,45.13,2.03,54.41,0,60.97c21.58-.95,43.15-1.93,64.74-2.88,6.51,4.87,11.03,8.25,17.53,13.12,.75,4.46,1.48,8.94,2.2,13.41-4.41,5.43-6.94,8.54-11.33,13.97-19.17,2.65-38.35,5.29-57.53,7.94,2.72,3.44,7.33,8.45,14.43,12.76,11.18,6.79,22.17,8.03,32.13,9.14,6.46,.72,15.79,1.22,27.06-.07,.82,6.14,1.63,12.3,2.44,18.47,8.24-.91,14.68-2.58,19.07-3.95,21.8-6.85,41.43-21.54,49.32-27.46,4.94-3.69,9.34-7.28,16.85-9.45,8.13-2.34,15.64-1.78,20.61-.96,5.66,1.27,36.23,7.84,66.55,14.36v-3.92c-29.88-6.49-59.84-13.02-65.23-14.36Zm-146.61,7.5c-4.07,.64-8.14,1.36-12.21,1.92-2.66,.39-5.32,.77-7.99,1.14,1.31,.95,2.67,1.85,4.08,2.69,2.63,1.5,5.4,2.82,8.33,3.89,2.89,1.09,5.95,1.94,9.04,2.68,3.11,.73,6.29,1.35,9.45,2.05-3.26-.03-6.51-.13-9.75-.47-3.24-.34-6.53-.87-9.71-1.76-6.37-1.75-12.38-4.85-17.34-8.97l-2.97-2.49,4-.6c4.08-.62,8.18-1.15,12.27-1.68,4.09-.57,8.2-.98,12.32-1.45,8.22-.82,16.46-1.59,24.78-1.86-8.03,1.97-16.14,3.49-24.29,4.91Zm38.85-9.5l-2.37-15.31-2.18-14.78-20.32-14.87-28.47,1.43-29.15,1.35-3.07,.14,1.1-2.61c2.23-5.23,4.96-10.29,8.27-15.03,3.28-4.71,6.82-9.27,10.96-13.45,8.15-8.34,18.4-15.36,30.24-18.81,11.81-3.52,24.59-3.49,36.4-.77,11.84,2.73,22.88,7.58,33.05,13.45-10.61-5.2-21.75-9.66-33.47-11.76-11.66-2.24-23.87-1.82-34.98,1.71-11.1,3.57-20.71,10.32-28.43,18.43-3.88,4.07-7.31,8.5-10.44,13.09-2.62,3.75-4.83,7.72-6.7,11.84l26.04-1.12,29.15-1.15,.69-.02,.52,.4,20.93,16.01,.48,.35,.06,.52,1.78,15.38,1.69,15.38c1.07,10.27,2.22,20.52,3.16,30.81-1.74-10.19-3.3-20.4-4.94-30.62Zm25.42-52.42c-4.27,.77-8.55,1.45-12.83,2.11,.76,4.32,1.44,8.63,2.12,12.95,.7,4.85,1.43,9.7,2,14.56,.61,4.86,1.13,9.72,1.55,14.6,.46,4.88,.8,9.77,.94,14.68-1.29-4.78-2.38-9.58-3.37-14.38-1.01-4.81-1.94-9.62-2.76-14.46-.88-4.82-1.58-9.68-2.34-14.51-.69-4.83-1.37-9.69-1.93-14.56l-.17-1.63,1.7-.17c4.91-.49,9.83-.93,14.77-1.27,4.93-.37,9.88-.65,14.84-.76-4.83,1.08-9.66,2.01-14.53,2.84Z"/>
    </g>
  </g>
</svg>