<?xml version="1.0" encoding="UTF-8"?>
<svg id="Layer_2" data-name="Layer 2" xmlns="http://www.w3.org/2000/svg" viewBox="0 0 217.27 177.22">
  <g id="Livello_1" data-name="Livello 1">
    <g>
      <path d="M109.69,41.19h7.26v21.57h-30.75v-21.57h6.41s0-15.83,0-15.83c-.73-.6-1.32-1.31-1.74-2.1-8.77,3.86-46.06,6.89-46.06,6.89-4.3,0-7.95-3.74-7.81-8.32,.07-2.31,2.88-4.68,2.88-6.76s-2.56-3.61-2.88-6.76C36.53,3.77,40.5,0,44.8,0c0,0,37.29,3.03,46.06,6.89,1.25-2.38,4.09-4.04,7.4-4.04h5.78c4.46,0,8.09,3.01,8.09,6.75v10.95c0,1.89-.93,3.59-2.43,4.81v15.83Z"/>
      <path d="M162.46,30.14s-47.92-3.89-47.92-8.47V8.47C114.54,3.89,162.46,0,162.46,0c4.29,0,8.27,3.77,7.81,8.31-.31,3.15-2.87,4.68-2.87,6.76s2.8,4.44,2.87,6.76c.15,4.57-3.52,8.32-7.81,8.32Z"/>
      <path d="M39.36,142.82v30.29c0,2.27-2.2,4.11-4.92,4.11H4.92c-2.72,0-4.92-1.84-4.92-4.11v-30.29c0-25.77,25.75-46.74,57.4-46.74h18.95s0-22.94,0-22.94h-1.03v-5.14h1.03s50.46,0,50.46,0h1.03v5.14h-1.03s0,22.94,0,22.94h63.52v8.9s0,14.92,0,14.92v9.04H57.4c-9.95,0-18.04,6.22-18.04,13.87Z"/>
      <polygon points="214.32 131.2 214.32 128.94 214.32 96.08 214.32 93.71 214.32 91.95 217.27 91.95 217.27 93.71 217.27 96.08 217.27 128.94 217.27 131.2 217.27 132.93 214.32 132.93 214.32 131.2"/>
      <polygon points="195.24 96.08 195.24 91.62 212.04 91.62 212.04 93.71 212.04 96.08 212.04 104.98 195.24 104.98 195.24 96.08"/>
      <polygon points="195.24 128.94 195.24 119.9 212.04 119.9 212.04 128.94 212.04 131.2 212.04 133.26 195.24 133.26 195.24 128.94"/>
    </g>
  </g>
</svg>