<?xml version="1.0" encoding="UTF-8"?>
<svg id="Layer_2" data-name="Layer 2" xmlns="http://www.w3.org/2000/svg" viewBox="0 0 235.84 154.45">
  <g id="Livello_1" data-name="Livello 1">
    <g>
      <g>
        <path d="M112.22,88.12l-.19-12-.19-12.01c-.02-1.09-.42-2.06-1.06-2.82-.73-.83-1.76-1.36-2.89-1.34l-18.83,.29,.04,2.35,.22,13.88,.22,13.88,.04,2.34,18.83-.29c1.14-.02,2.15-.58,2.85-1.43,.61-.76,.99-1.76,.97-2.85Z"/>
        <path d="M87.22,76.03l-.22-13.88-.04-2.35-.02-1.53S76.34,19.04,16.29,9.16L9.01,0S-1.74,41.88,.25,77.38c-.88,35.54,11.18,77.07,11.18,77.07l6.99-9.38c59.71-11.75,69.08-51.29,69.08-51.29l-.02-1.53-.04-2.34-.22-13.88Z"/>
      </g>
      <path d="M235.28,59.34l-119.9,1.87c.31,.91,.5,1.85,.51,2.82l.19,12.01,.19,12c.02,.97-.14,1.92-.42,2.84l120.01-1.87c-.28-8.77-.59-20.62-.57-29.68Z"/>
    </g>
  </g>
</svg>