<?xml version="1.0" encoding="UTF-8"?>
<svg id="Layer_2" data-name="Layer 2" xmlns="http://www.w3.org/2000/svg" viewBox="0 0 234.46 282.85">
  <defs>
    <style>
      .cls-1 {
        fill: none;
      }
    </style>
  </defs>
  <g id="Livello_1" data-name="Livello 1">
    <g>
      <path class="cls-1" d="M133.3,70.57c-.58-1.23-.45-3.19,.29-4.35l5.37-8.38c.73-1.16,2.43-2.04,3.75-1.97l9.59,.57c1.33,.08,2.89,1.15,3.47,2.39l4.23,8.95c.58,1.23,.44,3.2-.29,4.36l-5.36,8.39c-.73,1.16-2.43,2.04-3.76,1.97l-9.59-.57c-1.32-.08-2.87-1.15-3.47-2.39l-4.23-8.96Z"/>
      <polygon points="76.7 35.23 65.46 31.09 54.35 20.26 26.78 22.16 7.52 13.57 34.97 4.41 60.8 2.05 72.35 14.26 76.7 35.23"/>
      <polygon points="60.33 37.33 73.04 40.23 51.68 56.41 29.36 64.33 8.83 52 0 27.06 20.3 32.76 32.27 45.28 60.33 37.33"/>
      <path d="M185.23,215.68c16-5.63,32.75-7.84,49.23-6.82l-26.15-35.29c-1.47-2.07-2.73-3.6-3.91-4.85l-3.4-4.5-31.12-78.06,3.75-19.04-5.99-13.1c-5.2-4.79-12.66-7.38-20.65-8.63-20.05-3.38-42.75,1.89-42.75,1.89l-29.16-6.17-21.35,16.18-22.83,8.2,5.27,3.4,37.5,12.6,13.44,3.82,10.68,3.03c1.04,.29,2,.79,2.84,1.47l11.46,9.28c.78-.25,1.39-.46,1.4-.57,.07-.34,.3-1.45,.39-1.79,.1-.35,.5-1.46,.63-1.8,.14-.34,.65-1.42,.83-1.77,.02-.03,.08-.12,.1-.17,.25-.41,.76-1.23,.97-1.52,.22-.34,.98-1.28,1.26-1.58,.28-.32,1.14-1.13,1.45-1.43,.32-.27,1.23-.93,1.6-1.15,.35-.23,1.27-.71,1.66-.86,.38-.17,1.31-.45,1.7-.52,0,0,.46-.09,.86-.13,.4-.03,1.27,0,1.63,.04,.36,.06,1.19,.28,1.5,.4,.3,.13,1.07,.54,1.34,.73,.26,.18,.92,.77,1.12,1,.19,.23,.73,.98,.88,1.26,.15,.26,.56,1.13,.66,1.42,.11,.28,.34,1.24,.4,1.55,.06,.31,.17,1.33,.19,1.65,0,.33-.03,1.42-.06,1.75-.21,2.18,5.07,1.14,4.86,3.33-.21,2.17-5.48,3.23-5.69,5.43-.21,2.16,5.08,1.12,4.85,3.3-.11,1.16-1.6,2-3.04,2.85-.25,.15-.49,.3-.73,.45l1.82,4.15,.87,1.99,8.24,18.82,21.91,50.01,11.28,16.86c.25,1.04,.6,2.05,1.13,2.96l7.1,9.97Zm-47.7-136.15l-4.23-8.96c-.58-1.23-.45-3.19,.29-4.35l5.37-8.38c.73-1.16,2.43-2.04,3.75-1.97l9.59,.57c1.33,.08,2.89,1.15,3.47,2.39l4.23,8.95c.58,1.23,.44,3.2-.29,4.36l-5.36,8.39c-.73,1.16-2.43,2.04-3.76,1.97l-9.59-.57c-1.32-.08-2.87-1.15-3.47-2.39Z"/>
      <path d="M110.03,276.47c-2.31-6.23-3.83-10.48-3.63-14.53l-23-55.43,3.63-118.6,9.36,2.57c1.02,.28,1.98,.76,2.81,1.42l10.17,8c-.72,.23-1.26,.43-1.27,.53-.21,2.19,5.08,1.15,4.86,3.35-.2,2.18-5.49,3.24-5.7,5.44-.21,2.19,5.07,1.14,4.87,3.32-.2,2.2-5.49,3.25-5.7,5.44-.22,2.17,5.06,1.14,4.86,3.32-.21,2.2-5.5,3.23-5.7,5.42-.21,2.18,5.08,1.13,4.87,3.32-.21,2.18-5.5,3.24-5.7,5.41-.2,2.2,5.08,1.15,4.86,3.34-.2,2.18-5.48,3.23-5.68,5.41-.22,2.2,5.06,1.14,4.85,3.33-.2,2.18-5.48,3.23-5.68,5.42-.23,2.19,5.05,1.12,4.86,3.31-.21,2.18-5.48,3.23-5.7,5.41-.21,2.18,5.07,1.14,4.87,3.32-.21,2.18-5.5,3.24-5.7,5.42-.21,2.18,5.08,1.13,4.87,3.31-.2,2.19-5.5,3.24-5.7,5.42-.2,2.19,5.06,1.14,4.86,3.32-.02,.34-.05,1.42-.05,1.74,.01,.33,.11,1.36,.17,1.66,.07,.32,.33,1.28,.41,1.55,.12,.29,.51,1.17,.66,1.42,.15,.26,.7,1.02,.9,1.24,.2,.22,.87,.82,1.12,1.01,.25,.17,1.02,.62,1.33,.73,.32,.12,1.15,.35,1.51,.39,.37,.05,1.24,.08,1.63,.04,.39-.03,.85-.12,.85-.12,.39-.08,1.31-.35,1.7-.52,.39-.16,1.31-.63,1.68-.86,.36-.22,1.27-.89,1.59-1.16,.32-.28,1.18-1.12,1.44-1.41,.28-.3,1.04-1.27,1.27-1.6,.24-.32,.88-1.36,1.07-1.69,.18-.34,.7-1.42,.85-1.76,.15-.35,.51-1.45,.62-1.8,.09-.32,.33-1.45,.4-1.78,.04-.34,5.35-1.61,5.38-1.96,.22-2.17-5.07-1.13-4.87-3.32,.22-2.2,5.5-3.24,5.71-5.44,.18-2.19-5.09-1.14-4.88-3.33,.21-2.2,5.51-3.25,5.71-5.43,.21-2.2-5.06-1.14-4.86-3.32,.21-2.19,5.48-3.24,5.68-5.43,.21-2.16-5.07-1.13-4.87-3.31,.21-2.2,5.49-3.24,5.7-5.42,.2-2.19-5.09-1.14-4.86-3.32,.2-2.19,5.5-3.23,5.7-5.41,.21-2.2-5.08-1.15-4.86-3.35,.19-2.17,5.48-3.22,5.69-5.41,.21-2.2-5.08-1.14-4.87-3.33,.13-1.33,2.11-2.24,3.7-3.23,1.42,3.27,7.79,17.88,10.46,23.93l1.89,25.79-7.16,45.87-3.91,25.58,2.52,6.14c-10.76,10.89-19.23,23.45-25.24,36.98l-2.37-6.37Z"/>
      <path d="M103.93,45.05l-25.51-9.42-4.66-22.38L62.56,1.57l22.68-1.57,55.99,19.63,17.19,26.88c-7.65-3.26-25.52-8.18-54.49-1.46Z"/>
    </g>
  </g>
</svg>