<?xml version="1.0" encoding="utf-8"?>
<!-- Generator: Adobe Illustrator 26.5.0, SVG Export Plug-In . SVG Version: 6.00 Build 0)  -->
<svg version="1.1" id="Layer_2_00000072262922353877507620000016316133238348433283_"
	 xmlns="http://www.w3.org/2000/svg" xmlns:xlink="http://www.w3.org/1999/xlink" x="0px" y="0px" viewBox="0 0 2056 282.9"
	 style="enable-background:new 0 0 2056 282.9;" xml:space="preserve">
<style type="text/css">
	.st0{fill:none;}
</style>
<g>
	<path class="st0" d="M1954.8,70.6c-0.6-1.2-0.4-3.2,0.3-4.3l5.4-8.4c0.7-1.2,2.4-2,3.8-2l9.6,0.6c1.3,0.1,2.9,1.2,3.5,2.4l4.2,9
		c0.6,1.2,0.4,3.2-0.3,4.4l-5.4,8.4c-0.7,1.2-2.4,2-3.8,2l-9.6-0.6c-1.3-0.1-2.9-1.2-3.5-2.4L1954.8,70.6L1954.8,70.6z"/>
	<polygon points="1898.2,35.2 1887,31.1 1875.9,20.3 1848.3,22.2 1829,13.6 1856.5,4.4 1882.3,2 1893.9,14.3 	"/>
	<polygon points="1881.8,37.3 1894.6,40.2 1873.2,56.4 1850.9,64.3 1830.3,52 1821.5,27.1 1841.8,32.8 1853.8,45.3 	"/>
	<path d="M2006.7,215.7c16-5.6,32.8-7.8,49.2-6.8l-26.2-35.3c-1.5-2.1-2.7-3.6-3.9-4.9l-3.4-4.5l-31.1-78.1l3.8-19l-6-13.1
		c-5.2-4.8-12.7-7.4-20.7-8.6c-20.1-3.4-42.8,1.9-42.8,1.9l-29.2-6.2l-21.3,16.2l-22.8,8.2l5.3,3.4l37.5,12.6l13.4,3.8l10.7,3
		c1,0.3,2,0.8,2.8,1.5l11.5,9.3c0.8-0.2,1.4-0.5,1.4-0.6c0.1-0.3,0.3-1.4,0.4-1.8c0.1-0.3,0.5-1.5,0.6-1.8c0.1-0.3,0.7-1.4,0.8-1.8
		c0,0,0.1-0.1,0.1-0.2c0.2-0.4,0.8-1.2,1-1.5c0.2-0.3,1-1.3,1.3-1.6c0.3-0.3,1.1-1.1,1.4-1.4c0.3-0.3,1.2-0.9,1.6-1.2
		c0.3-0.2,1.3-0.7,1.7-0.9c0.4-0.2,1.3-0.4,1.7-0.5c0,0,0.5-0.1,0.9-0.1c0.4,0,1.3,0,1.6,0c0.4,0.1,1.2,0.3,1.5,0.4
		c0.3,0.1,1.1,0.5,1.3,0.7c0.3,0.2,0.9,0.8,1.1,1c0.2,0.2,0.7,1,0.9,1.3c0.2,0.3,0.6,1.1,0.7,1.4c0.1,0.3,0.3,1.2,0.4,1.6
		c0.1,0.3,0.2,1.3,0.2,1.7c0,0.3,0,1.4-0.1,1.8c-0.2,2.2,5.1,1.1,4.9,3.3c-0.2,2.2-5.5,3.2-5.7,5.4c-0.2,2.2,5.1,1.1,4.8,3.3
		c-0.1,1.2-1.6,2-3,2.8c-0.2,0.2-0.5,0.3-0.7,0.4l1.8,4.2l0.9,2l8.2,18.8l21.9,50l11.3,16.9c0.2,1,0.6,2.1,1.1,3L2006.7,215.7
		L2006.7,215.7z M1959,79.5l-4.2-9c-0.6-1.2-0.4-3.2,0.3-4.3l5.4-8.4c0.7-1.2,2.4-2,3.8-2l9.6,0.6c1.3,0.1,2.9,1.2,3.5,2.4l4.2,9
		c0.6,1.2,0.4,3.2-0.3,4.4l-5.4,8.4c-0.7,1.2-2.4,2-3.8,2l-9.6-0.6C1961.2,81.8,1959.6,80.8,1959,79.5L1959,79.5z"/>
	<path d="M1931.5,276.5c-2.3-6.2-3.8-10.5-3.6-14.5l-23-55.4l3.6-118.6l9.4,2.6c1,0.3,2,0.8,2.8,1.4l10.2,8
		c-0.7,0.2-1.3,0.4-1.3,0.5c-0.2,2.2,5.1,1.2,4.9,3.3c-0.2,2.2-5.5,3.2-5.7,5.4c-0.2,2.2,5.1,1.1,4.9,3.3c-0.2,2.2-5.5,3.2-5.7,5.4
		c-0.2,2.2,5.1,1.1,4.9,3.3c-0.2,2.2-5.5,3.2-5.7,5.4c-0.2,2.2,5.1,1.1,4.9,3.3c-0.2,2.2-5.5,3.2-5.7,5.4c-0.2,2.2,5.1,1.1,4.9,3.3
		c-0.2,2.2-5.5,3.2-5.7,5.4c-0.2,2.2,5.1,1.1,4.8,3.3c-0.2,2.2-5.5,3.2-5.7,5.4c-0.2,2.2,5.1,1.1,4.9,3.3c-0.2,2.2-5.5,3.2-5.7,5.4
		c-0.2,2.2,5.1,1.1,4.9,3.3c-0.2,2.2-5.5,3.2-5.7,5.4c-0.2,2.2,5.1,1.1,4.9,3.3c-0.2,2.2-5.5,3.2-5.7,5.4c-0.2,2.2,5.1,1.1,4.9,3.3
		c0,0.3-0.1,1.4-0.1,1.7c0,0.3,0.1,1.4,0.2,1.7c0.1,0.3,0.3,1.3,0.4,1.6c0.1,0.3,0.5,1.2,0.7,1.4c0.2,0.3,0.7,1,0.9,1.2
		c0.2,0.2,0.9,0.8,1.1,1c0.2,0.2,1,0.6,1.3,0.7c0.3,0.1,1.2,0.4,1.5,0.4c0.4,0.1,1.2,0.1,1.6,0c0.4,0,0.8-0.1,0.8-0.1
		c0.4-0.1,1.3-0.4,1.7-0.5c0.4-0.2,1.3-0.6,1.7-0.9c0.4-0.2,1.3-0.9,1.6-1.2c0.3-0.3,1.2-1.1,1.4-1.4c0.3-0.3,1-1.3,1.3-1.6
		c0.2-0.3,0.9-1.4,1.1-1.7c0.2-0.3,0.7-1.4,0.8-1.8c0.2-0.4,0.5-1.4,0.6-1.8c0.1-0.3,0.3-1.4,0.4-1.8c0-0.3,5.3-1.6,5.4-2
		c0.2-2.2-5.1-1.1-4.9-3.3c0.2-2.2,5.5-3.2,5.7-5.4c0.2-2.2-5.1-1.1-4.9-3.3c0.2-2.2,5.5-3.2,5.7-5.4c0.2-2.2-5.1-1.1-4.9-3.3
		c0.2-2.2,5.5-3.2,5.7-5.4c0.2-2.2-5.1-1.1-4.9-3.3c0.2-2.2,5.5-3.2,5.7-5.4c0.2-2.2-5.1-1.1-4.9-3.3c0.2-2.2,5.5-3.2,5.7-5.4
		c0.2-2.2-5.1-1.1-4.9-3.4c0.2-2.2,5.5-3.2,5.7-5.4c0.2-2.2-5.1-1.1-4.9-3.3c0.1-1.3,2.1-2.2,3.7-3.2c1.4,3.3,7.8,17.9,10.5,23.9
		l1.9,25.8l-7.2,45.9l-3.9,25.6l2.5,6.1c-10.8,10.9-19.2,23.5-25.2,37L1931.5,276.5L1931.5,276.5z"/>
	<path d="M1925.4,45l-25.5-9.4l-4.7-22.4l-11.2-11.7l22.7-1.6l56,19.6l17.2,26.9C1972.3,43.2,1954.4,38.3,1925.4,45L1925.4,45z"/>
</g>
<path d="M1668,99.2l-5.8,31l-26.4-12.4c0,0-9.9-5.3-13.6,1.6c-18.5,34.2-61.1,124.3-50.8,133.5c19.5,17.3,144.5-61.4,144.5-61.4
	s15.2-6.7,3.5-16.3l-30-29.3l5-33.8l63.1-54.9c-7.5-10.8-11.9-21.5-14.6-29.9L1668,99.2L1668,99.2z"/>
<g>
	<path d="M1389.8,152.3l-0.2-12l-0.2-12c0-1.1-0.4-2.1-1.1-2.8c-0.7-0.8-1.8-1.4-2.9-1.3l-18.8,0.3l0,2.3l0.2,13.9l0.2,13.9l0,2.3
		l18.8-0.3c1.1,0,2.2-0.6,2.8-1.4C1389.4,154.4,1389.8,153.4,1389.8,152.3L1389.8,152.3z"/>
	<path d="M1364.8,140.2l-0.2-13.9l0-2.3l0-1.5c0,0-10.6-39.2-70.7-49.1l-7.3-9.2c0,0-10.8,41.9-8.8,77.4
		c-0.9,35.5,11.2,77.1,11.2,77.1l7-9.4c59.7-11.8,69.1-51.3,69.1-51.3l0-1.5l0-2.3L1364.8,140.2L1364.8,140.2z"/>
	<path d="M1512.8,123.5l-119.9,1.9c0.3,0.9,0.5,1.8,0.5,2.8l0.2,12l0.2,12c0,1-0.1,1.9-0.4,2.8l120-1.9
		C1513.1,144.4,1512.8,132.6,1512.8,123.5L1512.8,123.5z"/>
</g>
<g>
	<path d="M1067.6,94h7.3v21.6h-30.8V94h6.4V78.2c-0.7-0.6-1.3-1.3-1.7-2.1c-8.8,3.9-46.1,6.9-46.1,6.9c-4.3,0-8-3.7-7.8-8.3
		c0.1-2.3,2.9-4.7,2.9-6.8s-2.6-3.6-2.9-6.8c-0.5-4.5,3.5-8.3,7.8-8.3c0,0,37.3,3,46.1,6.9c1.2-2.4,4.1-4,7.4-4h5.8
		c4.5,0,8.1,3,8.1,6.8v11c0,1.9-0.9,3.6-2.4,4.8L1067.6,94L1067.6,94z"/>
	<path d="M1120.4,82.9c0,0-47.9-3.9-47.9-8.5V61.3c0-4.6,47.9-8.5,47.9-8.5c4.3,0,8.3,3.8,7.8,8.3c-0.3,3.1-2.9,4.7-2.9,6.8
		s2.8,4.4,2.9,6.8C1128.4,79.2,1124.7,82.9,1120.4,82.9z"/>
	<path d="M997.3,195.6v30.3c0,2.3-2.2,4.1-4.9,4.1h-29.5c-2.7,0-4.9-1.8-4.9-4.1v-30.3c0-25.8,25.8-46.7,57.4-46.7h19v-22.9h-1v-5.1
		h1h50.5h1v5.1h-1v22.9h63.5v8.9v14.9v9h-132.9C1005.4,181.7,997.3,188,997.3,195.6L997.3,195.6z"/>
	<polygon points="1172.3,184 1172.3,181.8 1172.3,148.9 1172.3,146.5 1172.3,144.8 1175.2,144.8 1175.2,146.5 1175.2,148.9 
		1175.2,181.8 1175.2,184 1175.2,185.7 1172.3,185.7 	"/>
	<polygon points="1153.2,148.9 1153.2,144.4 1170,144.4 1170,146.5 1170,148.9 1170,157.8 1153.2,157.8 	"/>
	<polygon points="1153.2,181.8 1153.2,172.7 1170,172.7 1170,181.8 1170,184 1170,186.1 1153.2,186.1 	"/>
</g>
<g>
	<path class="st0" d="M711.9,113.9l-1.7,0.2l0.2,1.6c0.6,4.9,1.2,9.7,1.9,14.6c0.8,4.8,1.5,9.7,2.3,14.5c0.8,4.8,1.8,9.6,2.8,14.5
		c1,4.8,2.1,9.6,3.4,14.4c-0.2-4.9-0.5-9.8-0.9-14.7c-0.4-4.9-0.9-9.8-1.5-14.6c-0.6-4.9-1.3-9.7-2-14.6c-0.7-4.3-1.4-8.6-2.1-12.9
		c4.3-0.7,8.6-1.3,12.8-2.1c4.9-0.8,9.7-1.8,14.5-2.8c-5,0.1-9.9,0.4-14.8,0.8C721.8,112.9,716.9,113.4,711.9,113.9L711.9,113.9z"/>
	<path class="st0" d="M701.7,151.5l-1.8-15.4l-0.1-0.5l-0.5-0.4l-20.9-16l-0.5-0.4l-0.7,0l-29.2,1.2l-26,1.1
		c1.9-4.1,4.1-8.1,6.7-11.8c3.1-4.6,6.6-9,10.4-13.1c7.7-8.1,17.3-14.9,28.4-18.4c11.1-3.5,23.3-4,35-1.7
		c11.7,2.1,22.9,6.6,33.5,11.8c-10.2-5.9-21.2-10.7-33-13.4c-11.8-2.7-24.6-2.8-36.4,0.8c-11.8,3.4-22.1,10.5-30.2,18.8
		c-4.2,4.2-7.7,8.7-11,13.4c-3.3,4.7-6,9.8-8.3,15l-1.1,2.6l3.1-0.1l29.2-1.3l28.5-1.4L697,137l2.2,14.8l2.4,15.3
		c1.6,10.2,3.2,20.4,4.9,30.6c-0.9-10.3-2.1-20.5-3.2-30.8L701.7,151.5L701.7,151.5z"/>
	<path class="st0" d="M786.4,167.6c-3.8,1.1-7.4,2.7-10.6,4.8c-3.3,2-6.1,4.4-9,6.8c3.1-2.1,6.2-4.3,9.6-6c3.3-1.7,6.9-3,10.6-3.9
		c7.3-1.8,15.2-1.6,22.4-0.2c5.4,1.3,35.3,7.9,65.2,14.4v-3.4c-29.6-6.3-59.2-12.6-64.5-13.7C802.1,165,794,165.4,786.4,167.6
		L786.4,167.6z"/>
	<path class="st0" d="M649.9,175c-4.1,0.5-8.2,1.1-12.3,1.7l-4,0.6l3,2.5c5,4.1,11,7.2,17.3,9c3.2,0.9,6.5,1.4,9.7,1.8
		c3.2,0.3,6.5,0.4,9.8,0.5c-3.2-0.7-6.3-1.3-9.5-2.1c-3.1-0.7-6.1-1.6-9-2.7c-2.9-1.1-5.7-2.4-8.3-3.9c-1.4-0.9-2.8-1.7-4.1-2.7
		c2.7-0.4,5.3-0.8,8-1.1c4.1-0.6,8.1-1.3,12.2-1.9c8.1-1.4,16.2-2.9,24.3-4.9c-8.3,0.3-16.5,1-24.8,1.9
		C658.1,174,654,174.4,649.9,175L649.9,175z"/>
	<path d="M809.4,169.1c-7.2-1.4-15.1-1.6-22.4,0.2c-3.7,0.8-7.3,2.1-10.6,3.9c-3.3,1.8-6.4,3.9-9.6,6c2.9-2.4,5.7-4.8,9-6.8
		c3.3-2,6.9-3.6,10.6-4.8c7.6-2.2,15.7-2.6,23.8-1.2c5.3,1.1,34.9,7.4,64.5,13.7v-9.3c-22.6-4.8-42.5-9.1-44.8-9.6
		c-11.8-1.2-18.1-9.8-16.6-15.1c1.3-4.5,8.8-8.5,17.7-7.5c5.8,1,23.6,4.3,43.7,8c0.1-5.9,0.7-11.8,1.8-17.4
		c-35.3-6.6-73.1-13.6-88.2-16.4c-9.2-1.7-17.6-6-24.2-12.1c-6.2-5.7-14.4-12-25-17.5c-11.7-6.1-42.3-22-74.5-11.6
		c-23.3,7.5-36.2,25.2-41.2,31.9c-7.1,9.7-10.8,19-12.8,25.6c21.6-0.9,43.2-1.9,64.7-2.9c6.5,4.9,11,8.2,17.5,13.1
		c0.8,4.5,1.5,8.9,2.2,13.4c-4.4,5.4-6.9,8.5-11.3,14c-19.2,2.6-38.3,5.3-57.5,7.9c2.7,3.4,7.3,8.4,14.4,12.8
		c11.2,6.8,22.2,8,32.1,9.1c6.5,0.7,15.8,1.2,27.1-0.1c0.8,6.1,1.6,12.3,2.4,18.5c8.2-0.9,14.7-2.6,19.1-3.9
		c21.8-6.9,41.4-21.5,49.3-27.5c4.9-3.7,9.3-7.3,16.8-9.4c8.1-2.3,15.6-1.8,20.6-1c5.7,1.3,36.2,7.8,66.5,14.4v-3.9
		C844.7,177,814.8,170.4,809.4,169.1L809.4,169.1z M662.8,176.6c-4.1,0.6-8.1,1.4-12.2,1.9c-2.7,0.4-5.3,0.8-8,1.1
		c1.3,0.9,2.7,1.9,4.1,2.7c2.6,1.5,5.4,2.8,8.3,3.9c2.9,1.1,6,1.9,9,2.7c3.1,0.7,6.3,1.4,9.5,2.1c-3.3,0-6.5-0.1-9.8-0.5
		s-6.5-0.9-9.7-1.8c-6.4-1.8-12.4-4.9-17.3-9l-3-2.5l4-0.6c4.1-0.6,8.2-1.1,12.3-1.7c4.1-0.6,8.2-1,12.3-1.4
		c8.2-0.8,16.5-1.6,24.8-1.9C679,173.7,670.9,175.2,662.8,176.6L662.8,176.6z M701.6,167.1l-2.4-15.3L697,137l-20.3-14.9l-28.5,1.4
		l-29.2,1.3l-3.1,0.1l1.1-2.6c2.2-5.2,5-10.3,8.3-15c3.3-4.7,6.8-9.3,11-13.4c8.2-8.3,18.4-15.4,30.2-18.8
		c11.8-3.5,24.6-3.5,36.4-0.8c11.8,2.7,22.9,7.6,33,13.4c-10.6-5.2-21.8-9.7-33.5-11.8c-11.7-2.2-23.9-1.8-35,1.7
		c-11.1,3.6-20.7,10.3-28.4,18.4c-3.9,4.1-7.3,8.5-10.4,13.1c-2.6,3.8-4.8,7.7-6.7,11.8l26-1.1l29.2-1.2l0.7,0l0.5,0.4l20.9,16
		l0.5,0.4l0.1,0.5l1.8,15.4l1.7,15.4c1.1,10.3,2.2,20.5,3.2,30.8C704.8,187.5,703.2,177.3,701.6,167.1L701.6,167.1z M727,114.7
		c-4.3,0.8-8.5,1.4-12.8,2.1c0.8,4.3,1.4,8.6,2.1,12.9c0.7,4.9,1.4,9.7,2,14.6c0.6,4.9,1.1,9.7,1.5,14.6c0.5,4.9,0.8,9.8,0.9,14.7
		c-1.3-4.8-2.4-9.6-3.4-14.4c-1-4.8-1.9-9.6-2.8-14.5c-0.9-4.8-1.6-9.7-2.3-14.5c-0.7-4.8-1.4-9.7-1.9-14.6l-0.2-1.6l1.7-0.2
		c4.9-0.5,9.8-0.9,14.8-1.3c4.9-0.4,9.9-0.7,14.8-0.8C736.7,112.9,731.9,113.9,727,114.7L727,114.7z"/>
</g>
<path d="M422.4,170.2l3.3-2.4l57.1,79.2c8-6.3,16.9-11.4,26.4-15.1l-12.4-17.7c-6.8-9.9-13.7-19.8-20.5-29.8
	c7.4,9.6,14.6,19.2,21.8,28.8l13.3,17.9c1.4-0.5,2.7-0.9,4.1-1.4l-60-83.2c1.6-4.2,1.1-9.1-1.7-13l-3.4-4.7
	c-2.6-3.7-6.7-5.6-10.9-5.8c-0.8,0.2-1.6,0.4-2.3,0.7c-1.1,0.4-2.2,1.1-3.2,1.8l-3.3,2.4c-4.4,3.1-8.8,6.2-13.4,9.2
	c-4.5,2.9-9.1,5.8-14,8.4c4-3.8,8.1-7.2,12.4-10.6c4.2-3.4,8.6-6.6,13-9.8l3.3-2.4c1.2-0.8,2.5-1.6,4-2.1c0.2-0.1,0.5-0.2,0.7-0.2
	c-6.2-8.4-12.7-16.8-18.1-25.8c-1.9-3.1-3.6-6.3-4.6-9.8c-1.2-4.5-1-9.6,1.6-13.4c3.4-4.9,10.1-8,15.3-10.5
	c18.3-9.2,38.4-11.4,58.7-10.4c6.4,0.3,15.8,1.2,27.1,4c-9.6-6.5-22.6-13.9-38.9-19.3c-13.7-4.6-28-7.2-42.5-7.6
	C420,27,404,26.7,389.3,32.1c-7.3,2.7-14.1,6.5-20.3,11.2c-2,1.6-4.1,3.1-6.1,4.6l-26.4,19c2.5,8.1-2.6,19.2-12.9,26.6
	c-3,2.2-6.3,3.9-9.7,5.1c-3.1,1.1-6.3,1.7-9.5,1.7c-2.8,0-5.6-0.5-8.1-1.8c-0.8-0.4-1.4-0.9-2.1-1.4L261.1,121l41.1,57l32.4-23.4
	c-5-8.1,0-21.2,11.6-29.6c12-8.6,26.4-9.1,32.2-1c0.1,0.2,0.2,0.3,0.3,0.5l19.8,27.4c-1.6,4.2-1.1,9.1,1.7,13l3.4,4.7
	c2.8,3.9,7.3,5.9,11.8,5.8l57.8,80.2c2-2.1,4.2-4.1,6.4-6L422.4,170.2L422.4,170.2z M303,170.4l-3.3-4.6l8.8-6.3l3.3,4.6L303,170.4z
	 M311.1,105.8c-2.9,0.5-5.8,0.6-8.7,0.2c-2.9-0.3-5.7-1.1-8.2-2.5c5.4,2,11.2,1.9,16.5,0.5c5.4-1.3,10.4-3.9,14.8-7.2
	c4.4-3.3,8.2-7.4,10.9-12.1c2.8-4.7,4.3-10,3.9-15.2l-0.1-1l0.8-0.6c7.7-5.5,15.2-11.3,23.1-16.7c4-2.7,8-5.3,12.1-7.6
	c4.2-2.3,8.5-4.5,12.9-6.2c-4.1,2.3-8.2,4.8-12.1,7.5c-3.9,2.7-7.7,5.5-11.5,8.4c-7.2,5.6-14.4,11.4-21.8,16.8
	c0.3,5.8-1.6,11.5-4.5,16.3c-3.1,5.1-7.4,9.3-12.2,12.7C322.4,102.4,316.9,104.8,311.1,105.8L311.1,105.8z M361.5,114.6
	c-3,0.6-6,1.4-8.8,2.7c-2.8,1.2-5.5,2.7-8,4.5c-5,3.5-9.5,7.9-12.6,13.2c-3.1,5.2-5,11.4-4,17.8c-1.2-3-1.6-6.3-1.2-9.6
	c0.4-3.3,1.4-6.5,2.8-9.5c2.9-6,7.6-10.9,13-14.7c5.4-3.8,11.8-6.4,18.4-7c3.3-0.3,6.7-0.1,9.9,0.8c3.2,0.9,6.2,2.5,8.4,4.8
	C374,114.1,367.5,113.6,361.5,114.6L361.5,114.6z M407.3,86.5c-0.8-2.8-1.3-5.8-1.1-8.8c0.2-3,1.2-6.1,3-8.6
	c1.8-2.5,4.1-4.3,6.6-5.8c2.5-1.5,5-2.6,7.5-3.9c-4.2,3.8-9.3,6.7-11.8,11.2c-2.6,4.4-2.4,9.9-0.8,15c1.5,5.1,4,10,6.8,14.7
	c2.8,4.7,6,9.4,8.7,14.3c-3.8-4.1-7.6-8.3-10.9-12.8C411.8,97.2,408.9,92.1,407.3,86.5L407.3,86.5z"/>
<path d="M41.4,176.1c1.1-3.4,2-6.9,2.9-10.4c0.9-3.5,1.6-7.1,2.3-10.6c-0.2,3.6-0.7,7.2-1.4,10.8c-0.7,3.6-1.6,7.1-2.7,10.6
	c-0.4,1.4-15.9,38.9-32.8,79.9c0.3,0.1,0.5,0.1,0.8,0.2c18.7-45.6,37.5-91.2,37.8-92.4c-0.2,1.2-18.8,46.9-37.4,92.5
	c3.7,1,7.3,2.3,10.9,3.8c7.1,3,13.7,6.7,19.8,11C63.2,221.8,85.3,172,89,167.2c3.3-4.2,9-5.7,14-3.6l21.6-49.9l-4.4-1.9l33.9-72.5
	l-64.5-28L59.8,85.6l-4.5-1.9l-21,48.4c3.4,1.4,6.9,2.9,10.3,4.4c6.1,2.7,12.3,5.4,18.4,8.2c6.1,2.8,12.2,5.8,18.1,8.8
	c-6.3-2.3-12.6-4.7-18.8-7.2c-6.2-2.5-12.4-5.1-18.6-7.8c-2.4-1-4.7-2.1-7.1-3.1c3.1,2.6,4.7,6.7,4,10.8
	c-1.2,7.3-20.5,57.4-40.6,108.1c2.9,0.5,5.8,1.1,8.6,1.8C25.5,215.1,40.9,177.7,41.4,176.1L41.4,176.1z M134.4,67.5l-19.8,41.8
	l-4.5-2l-4.5-1.9l0,0l0,0l23.3-39.6l-18.8,41.5L134.4,67.5L134.4,67.5z M101.1,103.5l22.3-39.3l-17.8,41.2L101.1,103.5L101.1,103.5
	L101.1,103.5z M136.5,38.1c-4.1-0.2-7.9-1.1-11.7-2.1c-3.7-1.1-7.4-2.4-10.9-3.9c-3.5-1.5-7-3.3-10.3-5.3c-3.3-2-6.5-4.2-9.5-7.1
	L136.5,38.1L136.5,38.1z M101,103.5l-4.5-1.9l21.3-39L101,103.5L101,103.5z M96.5,101.6l-4.4-1.9L112.3,61L96.5,101.6L96.5,101.6
	L96.5,101.6L96.5,101.6z M92,99.6l-4.4-1.9l19.3-38.3L92,99.6L92,99.6L92,99.6L92,99.6z M87.4,97.6L83,95.7l18.3-38L87.4,97.6
	L87.4,97.6z M82.9,95.7l-4.4-1.9L95.8,56L82.9,95.7L82.9,95.7z M78.4,93.7L74,91.8l16.3-37.4C90.3,54.4,78.4,93.7,78.4,93.7z
	 M69.4,89.8l15.3-37.1l-10.9,39l-3.8-1.6L69.4,89.8L69.4,89.8L69.4,89.8L69.4,89.8z M79.3,51.1l-9.9,38.7l0,0l0,0l-4.4-1.9
	L79.3,51.1z M66.5,124c-2.1-0.9-3.1-3.4-2.2-5.5c0.9-2.1,3.4-3.1,5.5-2.2c2.1,0.9,3.1,3.4,2.2,5.5C71.1,123.9,68.7,124.9,66.5,124z
	 M79.2,100c-2.2-1-4.3-2-6.4-3.1c-2.1-1.1-4.2-2.1-6.3-3.2c2.2,0.8,4.4,1.6,6.7,2.5c2.2,0.8,4.4,1.7,6.6,2.5
	c4.4,1.7,8.8,3.5,13.1,5.3c4.4,1.8,8.7,3.7,13,5.5c4.3,1.9,8.7,3.8,12.9,5.8l0.9,0.4l-0.4,0.9c-1.9,4.2-3.8,8.4-5.8,12.6
	c-1,2.1-2,4.2-3,6.2c-1,2.1-2,4.2-3.1,6.2c0.8-2.2,1.6-4.4,2.4-6.5c0.8-2.2,1.6-4.3,2.5-6.5c1.6-4,3.2-7.9,4.8-11.9
	c-4.1-1.7-8.1-3.4-12.1-5.2c-4.3-1.9-8.7-3.8-12.9-5.8C87.7,104,83.5,102,79.2,100L79.2,100z M87.6,133.1c-2.1-0.9-3.1-3.4-2.2-5.5
	c0.9-2.1,3.4-3.1,5.5-2.2c2.1,0.9,3.1,3.4,2.2,5.5C92.1,133,89.7,134,87.6,133.1z"/>
</svg>
