<?xml version="1.0" encoding="UTF-8"?>
<svg id="Layer_2" data-name="Layer 2" xmlns="http://www.w3.org/2000/svg" xmlns:xlink="http://www.w3.org/1999/xlink" viewBox="0 0 296.6 261">
  <defs>
    <style>
      .cls-1 {
        fill: url(#linear-gradient-2);
      }

      .cls-2 {
        fill: url(#linear-gradient-6);
      }

      .cls-3 {
        fill: url(#linear-gradient-5);
      }

      .cls-4 {
        fill: url(#linear-gradient-7);
      }

      .cls-5 {
        fill: url(#linear-gradient-9);
      }

      .cls-6 {
        fill: url(#linear-gradient-3);
      }

      .cls-7 {
        fill: url(#linear-gradient);
      }

      .cls-8 {
        fill: url(#linear-gradient-4);
      }

      .cls-9 {
        fill: url(#linear-gradient-8);
      }
    </style>
    <linearGradient id="linear-gradient" x1="137.5" y1="-121.31" x2="137.5" y2="144.79" gradientTransform="translate(0 118)" gradientUnits="userSpaceOnUse">
      <stop offset=".15" stop-color="#e20613"/>
      <stop offset=".7" stop-color="#35a8e0"/>
      <stop offset=".98" stop-color="#0093d7"/>
    </linearGradient>
    <linearGradient id="linear-gradient-2" x1="13.85" x2="13.85" xlink:href="#linear-gradient"/>
    <linearGradient id="linear-gradient-3" x1="82.95" x2="82.95" xlink:href="#linear-gradient"/>
    <linearGradient id="linear-gradient-4" x1="168.95" x2="168.95" xlink:href="#linear-gradient"/>
    <linearGradient id="linear-gradient-5" x1="25.3" y1="-121.31" x2="25.3" y2="144.79" xlink:href="#linear-gradient"/>
    <linearGradient id="linear-gradient-6" x1="94.45" y1="-121.31" x2="94.45" y2="144.79" xlink:href="#linear-gradient"/>
    <linearGradient id="linear-gradient-7" x1="171.9" y1="-121.31" x2="171.9" y2="144.79" xlink:href="#linear-gradient"/>
    <linearGradient id="linear-gradient-8" x1="240.95" y1="-121.31" x2="240.95" y2="144.79" xlink:href="#linear-gradient"/>
    <linearGradient id="linear-gradient-9" x1="250.2" y1="-118" x2="250.2" y2="-25.2" gradientTransform="translate(0 118)" gradientUnits="userSpaceOnUse">
      <stop offset=".15" stop-color="#e20613"/>
      <stop offset="1" stop-color="#ac6760"/>
    </linearGradient>
  </defs>
  <g id="Livello_1" data-name="Livello 1">
    <g>
      <rect class="cls-7" x=".2" y="242.3" width="274.6" height="18.7"/>
      <rect class="cls-1" x=".1" y="1.1" width="27.5" height="86.3"/>
      <path class="cls-6" d="M67.4,25.9h8.5c14.4,0,21.7,5.9,21.7,17.6,0,12.5-7.3,18.8-22,18.8h-4v25.4c3.5,.2,6,.3,7.5,.3,13,0,23.7-4.1,32-12.4,8.3-8.3,12.4-18.9,12.4-32s-4.8-24.5-14.5-32.5C100.8,4.4,89.6,1.1,75.2,1.1H42.4V87.4h25V25.9h0Z"/>
      <path class="cls-8" d="M199.4,29.8c0-8.6-3-15.6-9.1-21.2-5.4-5-13-7.5-22.9-7.5h-32.3V87.4h25.3V24.3h4.5c6.1,0,9.2,2,9.2,6.1,0,4.6-2.7,7-7.9,7h-2v22.2l12.2,27.8h26.4l-14.6-35.6c7.5-6,11.2-13.3,11.2-22h0Z"/>
      <path class="cls-3" d="M38.2,183.8c-1.8-1.9-2.7-5.6-2.7-11.3V100.1H0v78.2c0,13.7,3.6,24.4,10.8,32.1s17.3,11.5,30.3,11.5h9.5v-35.3h-1.8c-5.3,0-8.8-1-10.6-2.8h0Z"/>
      <path class="cls-2" d="M70,109.8c-6.6,6.4-9.8,15.5-9.8,27.1v47.7c0,12.1,3.5,21.3,10.4,27.7s17,9.6,30.1,9.6h27.9v-34.8h-23.9c-4.2,0-6.9-.4-8.2-1.2s-2-2.5-2-5c0-2.3,.7-3.9,2-4.8s3.5-1.4,6.7-1.4h23.2v-27.1h-19.6c-3.7,0-6.3-.5-7.8-1.4s-2.2-2.6-2.2-5c0-4,3.1-6.1,9.2-6.1h22.7v-35h-30.9c-12,0-21.2,3.2-27.8,9.7h0Z"/>
      <path class="cls-4" d="M184.8,183.8c-1.8-1.9-2.7-5.6-2.7-11.3V100.1h-35.5v78.2c0,13.7,3.6,24.4,10.8,32.1s17.3,11.5,30.3,11.5h9.5v-35.3h-1.8c-5.3,0-8.9-1-10.6-2.8h0Z"/>
      <path class="cls-9" d="M254.4,111.7c-10.2,0-19.8-3.1-27.7-8.5-3.9,1.6-7.3,3.7-10.2,6.5-6.6,6.4-9.8,15.5-9.8,27.1v47.7c0,12.1,3.5,21.3,10.4,27.7s17,9.6,30.1,9.6h27.9v-34.8h-23.9c-4.2,0-6.9-.4-8.2-1.2s-2-2.5-2-5c0-2.3,.7-3.9,2-4.8s3.5-1.4,6.7-1.4h23.2v-27.1h-19.6c-3.7,0-6.3-.5-7.8-1.4s-2.2-2.6-2.2-5c0-4,3.1-6.1,9.2-6.1h22.7v-28c-4,1.8-8.3,3.2-12.8,4-2.7,.5-5.4,.7-8,.7h0Z"/>
      <path class="cls-5" d="M250.2,0c-25.6,0-46.4,20.8-46.4,46.4s20.8,46.4,46.4,46.4,46.4-20.8,46.4-46.4S275.8,0,250.2,0Zm0,67.7c-11.8,0-21.3-9.5-21.3-21.3s9.5-21.3,21.3-21.3,21.3,9.5,21.3,21.3-9.5,21.3-21.3,21.3Z"/>
    </g>
  </g>
</svg>